<svg xmlns="http://www.w3.org/2000/svg" viewBox="0 0 34 34"><defs><style>.iconAccent{fill:#d10}</style></defs><rect x="8" y="6" width="19" height="22" rx="1" fill="#a6a6a6"/><path class="iconAccent" d="M9.25 8.5h-1.5A.75.75 0 0 1 7 7.75.75.75 0 0 1 7.75 7h1.5a.75.75 0 0 1 .75.75.75.75 0 0 1-.75.75zm.75 2.25a.75.75 0 0 0-.75-.75h-1.5a.75.75 0 0 0-.75.75.75.75 0 0 0 .75.75h1.5a.75.75 0 0 0 .75-.75zm0 3a.75.75 0 0 0-.75-.75h-1.5a.75.75 0 0 0-.75.75.75.75 0 0 0 .75.75h1.5a.75.75 0 0 0 .75-.75zm0 3a.75.75 0 0 0-.75-.75h-1.5a.75.75 0 0 0-.75.75.75.75 0 0 0 .75.75h1.5a.75.75 0 0 0 .75-.75zm0 3a.75.75 0 0 0-.75-.75h-1.5a.75.75 0 0 0-.75.75.75.75 0 0 0 .75.75h1.5a.75.75 0 0 0 .75-.75zm0 3a.75.75 0 0 0-.75-.75h-1.5a.75.75 0 0 0-.75.75.75.75 0 0 0 .75.75h1.5a.75.75 0 0 0 .75-.75zm0 3a.75.75 0 0 0-.75-.75h-1.5a.75.75 0 0 0-.75.75.75.75 0 0 0 .75.75h1.5a.75.75 0 0 0 .75-.75z"/><rect x="9" y="7" width="17" height="20" rx=".5" fill="#fff"/><path class="iconAccent" d="M22.295 17l1.955-2.192-2.87-.626.292-2.924-2.69 1.181L17.5 9.903l-1.481 2.536-2.69-1.181.292 2.923-2.87.625L12.704 17l-1.955 2.192 2.87.626-.292 2.923 2.69-1.18 1.482 2.536 1.481-2.536 2.69 1.181-.292-2.923 2.87-.625zm.517 1.417l-1.308-.447-.892-1.16 1.149.427zm-4.22 2.711l-.808 1.39v-1.44l.841-1.23zm-1.901-7.17l-1.388-.494-.803-1.084 1.458.64zm2.352-.938l1.457-.64-.803 1.084-1.387.493zm1.766 1.28l-.705.999.042-1.506.825-1.112zM17.5 20.5l-1.08-1.577 1.08-1.466 1.08 1.466zm-2.03-4.49l-.055-1.914 1.801.641V16.6zm2.314-1.273l1.8-.64-.052 1.914-1.748.59zm-3.592-.437l-.162-1.62.824 1.113.042 1.505zm2.858 2.83l-1.08 1.465-1.837-.541L15.3 16.54zm-.674 2.718l.84 1.23v1.44l-.811-1.39zm1.574-2.718l1.751-.59 1.166 1.514-1.837.541zm5.25-1.982l-1.359 1.525-1.604-.596.962-1.365zm-5.7-4.142l1.032 1.765L17.5 14.09l-1.03-1.318zm-5.7 4.141l2.001-.436.962 1.366-1.604.596zm1.44 2.09l1.148-.427-.892 1.16-1.309.446zm-.93 1.726l1.361-.465 1.455.429-1.217.385zm1.87.846l1.629-.515.041 1.732-1.874.823zm4.969 1.218l.042-1.733 1.628.516.204 2.04zm1.942-1.715l-1.217-.385 1.454-.43 1.363.467zM4.5 2H8v2H4.5a.5.5 0 0 0-.5.5v25a.5.5 0 0 0 .5.5H8v2H4.5A2.503 2.503 0 0 1 2 29.5v-25A2.503 2.503 0 0 1 4.5 2zm25 0H26v2h3.5a.5.5 0 0 1 .5.5v25a.5.5 0 0 1-.5.5H26v2h3.5a2.503 2.503 0 0 0 2.5-2.5v-25A2.503 2.503 0 0 0 29.5 2z"/></svg>