<svg id="Layer_1" data-name="Layer 1" xmlns="http://www.w3.org/2000/svg" width="0.35in" height="0.37in" viewBox="0 0 25.05 26.44">
  <defs>
    <style>
      .cls-1 {
        fill: none;
      }

      .iconMain {
        fill: #da1f26;
      }
    </style>
  </defs>
  <title>cloud-notebook</title>
  <g id="createNB_-_codeZone-sidebar" data-name="createNB - codeZone-sidebar">
    <rect class="cls-1" width="25.05" height="26.44"/>
    <path id="newNotebookStatic" class="iconMain" d="M21.57,1.39H4.87a2.1,2.1,0,0,0-2,1.39H1.39v1.4H2.78V5.57H1.39V7H2.78V8.35H1.39V9.74H2.78v1.39H1.39v1.4H2.78v1.39H1.39v1.39H2.78V16.7H1.39v1.39H2.78v1.39H1.39v1.4H2.78v1.39H1.39v1.39H2.91a2.09,2.09,0,0,0,2,1.39h16.7A2.1,2.1,0,0,0,23.66,23V3.48A2.1,2.1,0,0,0,21.57,1.39ZM22.27,23a.7.7,0,0,1-.7.7H4.87a.69.69,0,0,1-.69-.7V3.48a.7.7,0,0,1,.69-.7h16.7a.71.71,0,0,1,.7.7ZM17.81,9.9l.34-3.43L15,7.86l-1.75-3-1.75,3L8.29,6.47,8.64,9.9l-3.4.74,2.31,2.58L5.24,15.8l3.4.74L8.29,20l3.18-1.38,1.75,3,1.75-3L18.15,20l-.34-3.44,3.39-.74-2.31-2.58,2.31-2.58ZM15.06,8.73l1.33-.58-.69.93-1.26.44Zm2-.13L17,10.08l-.62.87,0-1.38ZM15.52,10l0,2-1.83.62V10.69Zm-2.3-3.5L14.3,8.35,13.22,9.72,12.15,8.35Zm-.42,4.17v1.94L11,12l-.05-2Zm-1.42-2,.62.79-1.26-.45-.69-.92Zm-1.31.84,0,1.38-.62-.87L9.34,8.59ZM6.82,11.15l2.09-.45,1,1.41-1.68.62Zm1.53,2.43,1-.37-.8,1-1.14.39Zm-.76,1.88L8.8,15l1.34.4-1.07.34Zm1.67,3.18.22-2.12L11.17,16l.05,1.79Zm2.16-3.7L9.5,14.38l1.21-1.57,1.83.61Zm1.38,4.27-.74-1.28,0-1.12.77,1.13Zm-.71-3.78,1.13-1.52,1.13,1.52-1.13,1.64Zm2.29,2.51-.74,1.27V17.94l.77-1.13Zm-.48-4.52,1.83-.61L17,14.38,15,14.94Zm1.32,4.36,0-1.79,1.7.53.21,2.12Zm2.15-2-1.07-.34,1.34-.4,1.21.42ZM19,14.64l-1.14-.39-.8-1,1,.37Zm-.83-1.91-1.68-.62,1-1.41,2.08.45Z"/>
  </g>
</svg>
